<svg width="257" height="81" viewBox="0 0 257 81" fill="none" xmlns="http://www.w3.org/2000/svg">
<g clip-path="url(#clip0_209_133)">
<path d="M44.9 0H36.6L10 19.4V25.5L44.9 0Z" fill="#879FB6"/>
<path d="M10 9.6V15.7L31.5 0H23.1L10 9.6Z" fill="#6B849B"/>
<path d="M93.3001 17.4L67.6001 36.1L71.8001 39.2L93.3001 23.5V17.4Z" fill="#BAD7F1"/>
<path d="M93.2999 13.6V7.60001L60.8999 31.2L65.0999 34.3L93.2999 13.6Z" fill="#A9CBEA"/>
<path d="M58.4 29.4L93.3 3.8V0H90.3L54.2 26.3L58.4 29.4Z" fill="#9EC1E1"/>
<path d="M18.1 0H10V5.9L18.1 0Z" fill="#526271"/>
<path d="M26.6 42.7L51.6 24.5H51.7L85.2 0H76.8L10 48.8V64.3H26.6V42.7Z" fill="#91B8DC"/>
<path d="M74.3 41L76.6 42.7V65.5H93.3V27.2L74.3 41Z" fill="#91B8DC"/>
<path d="M58.3 0H50L10 29.2V35.3L58.3 0Z" fill="#8FACC7"/>
<path d="M71.8 0H63.4L10 39V45.1L71.8 0Z" fill="#8FB1D1"/>
</g>
<g clip-path="url(#clip1_209_133)">
<path d="M0 73.2913C0 73.2913 7.36096 51.5268 37.8953 51C64.6129 50.6049 76.4171 64.3171 98.5 63C120.583 61.6829 124 55 124 55C124 55 120.5 75 91 75C65.7819 73.4195 57.1156 67.7658 37.8953 65C14.1767 61.7074 5.86151 70.7889 0 73.2913Z" fill="#91B8DC"/>
</g>
<g clip-path="url(#clip2_209_133)">
<path d="M58.0229 77.2083C57.499 76.8021 56.9751 76.3958 56.3202 76.125C55.6653 75.7187 55.0104 75.4479 54.3555 75.0417C53.7006 74.6354 52.9148 74.2292 52.1289 73.9583C51.343 73.4167 50.5572 73.0104 49.7713 72.6042C48.9854 72.1979 48.0686 71.9271 47.1518 71.5208C46.2349 71.25 45.3181 70.8438 44.4012 70.5729C42.5676 70.0312 40.4719 69.4896 38.5073 69.0833C36.4116 68.6771 34.316 68.4062 32.2204 68.1354C31.0416 68.1354 29.9938 68 28.9459 68C28.422 68 27.8981 68 27.3742 68C26.8503 68 26.3264 68 25.8025 68C25.2786 68 24.7547 68 24.2308 68.1354C23.7069 68.1354 23.183 68.2708 22.659 68.2708C21.6112 68.4062 20.5634 68.5417 19.6466 68.6771C17.6819 68.9479 15.7173 69.3542 14.0146 69.8958C12.1809 70.3021 10.6091 70.8437 9.03742 71.5208C6.02495 72.7396 3.79834 74.2292 2.22661 75.3125C0.785863 76.3958 0 77.2083 0 77.2083C0 77.2083 0.261954 77.2083 0.785863 77.0729C1.30977 77.0729 1.96466 76.9375 2.8815 76.8021C3.79834 76.6667 4.84615 76.6667 6.02495 76.5312C7.20374 76.3958 8.64449 76.3958 10.0852 76.2604C11.526 76.2604 13.0977 76.125 14.8004 76.125C16.5031 76.125 18.2058 76.125 20.0395 76.125C20.9563 76.125 21.8732 76.125 22.79 76.2604C23.7069 76.2604 24.6237 76.3958 25.5405 76.3958C26.4574 76.3958 27.3742 76.5312 28.422 76.5312C29.3389 76.6667 30.3867 76.6667 31.3035 76.8021C33.2682 76.9375 35.1019 77.2083 37.0665 77.3438C38.9002 77.6146 40.8649 77.8854 42.6985 78.0208C43.6154 78.1562 44.5322 78.2917 45.3181 78.4271C46.2349 78.5625 47.0208 78.6979 47.9376 78.8333C48.7235 78.9688 49.6403 79.1042 50.4262 79.2396C51.2121 79.375 51.9979 79.5104 52.7838 79.6458C54.2245 79.9167 55.6653 80.0521 56.8441 80.3229C58.1538 80.4583 59.2017 80.5937 60.1185 80.7292C61.9522 81 63 81 63 81C63 81 62.2141 80.1875 60.7734 79.1042C59.9875 78.5625 59.0707 77.8854 58.0229 77.2083Z" fill="#91B8DC"/>
</g>
<path d="M115.26 25.38C115.567 25.38 115.813 25.4733 116 25.66C116.187 25.8333 116.28 26.0667 116.28 26.36V30.66C116.28 31.2733 116.2 31.7067 116.04 31.96C115.88 32.2133 115.553 32.42 115.06 32.58C114.527 32.7667 113.907 32.9133 113.2 33.02C112.493 33.1267 111.813 33.18 111.16 33.18C109.707 33.18 108.447 32.8933 107.38 32.32C106.313 31.7467 105.493 30.92 104.92 29.84C104.36 28.7467 104.08 27.4467 104.08 25.94C104.08 24.46 104.36 23.18 104.92 22.1C105.493 21.0067 106.3 20.1733 107.34 19.6C108.38 19.0133 109.607 18.72 111.02 18.72C112.9 18.72 114.44 19.2267 115.64 20.24C115.8 20.3867 115.913 20.5333 115.98 20.68C116.06 20.8267 116.1 21 116.1 21.2C116.1 21.4933 116.02 21.74 115.86 21.94C115.7 22.14 115.507 22.24 115.28 22.24C115.133 22.24 115 22.22 114.88 22.18C114.76 22.1267 114.62 22.0467 114.46 21.94C113.873 21.5267 113.327 21.24 112.82 21.08C112.313 20.9067 111.74 20.82 111.1 20.82C109.647 20.82 108.547 21.2533 107.8 22.12C107.067 22.9733 106.7 24.2467 106.7 25.94C106.7 29.4067 108.22 31.14 111.26 31.14C112.167 31.14 113.073 31.0133 113.98 30.76V27.22H111.72C111.4 27.22 111.147 27.14 110.96 26.98C110.787 26.82 110.7 26.5933 110.7 26.3C110.7 26.0067 110.787 25.78 110.96 25.62C111.147 25.46 111.4 25.38 111.72 25.38H115.26ZM120.468 33.12C120.081 33.12 119.768 33 119.528 32.76C119.301 32.52 119.188 32.2067 119.188 31.82V20.08C119.188 19.6933 119.301 19.3867 119.528 19.16C119.768 18.92 120.081 18.8 120.468 18.8C120.868 18.8 121.181 18.92 121.408 19.16C121.648 19.3867 121.768 19.6933 121.768 20.08V31.82C121.768 32.2067 121.648 32.52 121.408 32.76C121.181 33 120.868 33.12 120.468 33.12ZM136.093 31.38C136.253 31.62 136.333 31.8533 136.333 32.08C136.333 32.3867 136.206 32.64 135.953 32.84C135.713 33.04 135.426 33.14 135.093 33.14C134.88 33.14 134.673 33.0933 134.473 33C134.286 32.8933 134.126 32.74 133.993 32.54L131.333 28.5C131.066 28.0733 130.78 27.7733 130.473 27.6C130.18 27.4267 129.793 27.34 129.313 27.34H127.353V31.82C127.353 32.22 127.24 32.54 127.013 32.78C126.786 33.0067 126.48 33.12 126.093 33.12C125.706 33.12 125.393 33.0067 125.153 32.78C124.926 32.54 124.813 32.22 124.813 31.82V20.12C124.813 19.7333 124.92 19.4333 125.133 19.22C125.36 19.0067 125.666 18.9 126.053 18.9H131.053C132.653 18.9 133.866 19.26 134.693 19.98C135.533 20.6867 135.953 21.7133 135.953 23.06C135.953 24.1533 135.64 25.0533 135.013 25.76C134.4 26.4533 133.526 26.9 132.393 27.1C132.78 27.1933 133.12 27.36 133.413 27.6C133.706 27.84 133.993 28.1733 134.273 28.6L136.093 31.38ZM130.693 25.36C131.666 25.36 132.38 25.18 132.833 24.82C133.286 24.4467 133.513 23.88 133.513 23.12C133.513 22.3467 133.286 21.7867 132.833 21.44C132.38 21.08 131.666 20.9 130.693 20.9H127.333V25.36H130.693ZM144.902 33.18C143.528 33.18 142.335 32.8867 141.322 32.3C140.322 31.7133 139.548 30.8733 139.002 29.78C138.455 28.6867 138.182 27.4067 138.182 25.94C138.182 24.4733 138.448 23.2 138.982 22.12C139.528 21.0267 140.308 20.1867 141.322 19.6C142.335 19.0133 143.528 18.72 144.902 18.72C146.275 18.72 147.462 19.0133 148.462 19.6C149.475 20.1867 150.248 21.0267 150.782 22.12C151.328 23.2 151.602 24.4733 151.602 25.94C151.602 27.4067 151.328 28.6867 150.782 29.78C150.235 30.8733 149.455 31.7133 148.442 32.3C147.442 32.8867 146.262 33.18 144.902 33.18ZM144.902 31.12C146.195 31.12 147.202 30.6733 147.922 29.78C148.655 28.8867 149.022 27.6067 149.022 25.94C149.022 24.2733 148.655 23 147.922 22.12C147.202 21.2267 146.195 20.78 144.902 20.78C143.595 20.78 142.575 21.2267 141.842 22.12C141.122 23 140.762 24.2733 140.762 25.94C140.762 27.6067 141.122 28.8867 141.842 29.78C142.575 30.6733 143.595 31.12 144.902 31.12ZM164.888 18.8C165.261 18.8 165.554 18.92 165.768 19.16C165.994 19.3867 166.108 19.6933 166.108 20.08V31.82C166.108 32.2067 165.994 32.52 165.768 32.76C165.541 33 165.248 33.12 164.888 33.12C164.461 33.12 164.134 32.9667 163.908 32.66L156.608 23.16V31.82C156.608 32.2067 156.501 32.52 156.288 32.76C156.074 33 155.781 33.12 155.408 33.12C155.034 33.12 154.741 33 154.528 32.76C154.314 32.52 154.208 32.2067 154.208 31.82V20.08C154.208 19.6933 154.321 19.3867 154.548 19.16C154.774 18.92 155.074 18.8 155.448 18.8C155.861 18.8 156.181 18.9533 156.408 19.26L163.688 28.72V20.08C163.688 19.6933 163.794 19.3867 164.008 19.16C164.234 18.92 164.528 18.8 164.888 18.8ZM179.409 19.46C179.622 19.0067 179.976 18.78 180.469 18.78C180.802 18.78 181.102 18.8867 181.369 19.1C181.636 19.3133 181.769 19.58 181.769 19.9C181.769 20.0467 181.729 20.2133 181.649 20.4L176.109 32.32C175.989 32.5733 175.802 32.7733 175.549 32.92C175.309 33.0533 175.049 33.12 174.769 33.12C174.489 33.12 174.222 33.0533 173.969 32.92C173.729 32.7733 173.549 32.5733 173.429 32.32L167.909 20.4C167.829 20.2133 167.789 20.0533 167.789 19.92C167.789 19.5867 167.922 19.3133 168.189 19.1C168.469 18.8867 168.782 18.78 169.129 18.78C169.356 18.78 169.562 18.84 169.749 18.96C169.949 19.0667 170.102 19.2333 170.209 19.46L174.809 29.68L179.409 19.46ZM184.706 33.12C184.32 33.12 184.006 33 183.766 32.76C183.54 32.52 183.426 32.2067 183.426 31.82V20.08C183.426 19.6933 183.54 19.3867 183.766 19.16C184.006 18.92 184.32 18.8 184.706 18.8C185.106 18.8 185.42 18.92 185.646 19.16C185.886 19.3867 186.006 19.6933 186.006 20.08V31.82C186.006 32.2067 185.886 32.52 185.646 32.76C185.42 33 185.106 33.12 184.706 33.12ZM190.271 33C189.885 33 189.585 32.8933 189.371 32.68C189.158 32.4667 189.051 32.1733 189.051 31.8V20.08C189.051 19.6933 189.165 19.3867 189.391 19.16C189.631 18.92 189.945 18.8 190.331 18.8C190.731 18.8 191.045 18.92 191.271 19.16C191.511 19.3867 191.631 19.6933 191.631 20.08V30.88H197.251C198.051 30.88 198.451 31.2333 198.451 31.94C198.451 32.6467 198.051 33 197.251 33H190.271ZM201.365 33C200.978 33 200.678 32.8933 200.465 32.68C200.252 32.4667 200.145 32.1733 200.145 31.8V20.08C200.145 19.6933 200.258 19.3867 200.485 19.16C200.725 18.92 201.038 18.8 201.425 18.8C201.825 18.8 202.138 18.92 202.365 19.16C202.605 19.3867 202.725 19.6933 202.725 20.08V30.88H208.345C209.145 30.88 209.545 31.2333 209.545 31.94C209.545 32.6467 209.145 33 208.345 33H201.365ZM212.479 33C212.092 33 211.785 32.8933 211.559 32.68C211.345 32.4667 211.239 32.1667 211.239 31.78V20.12C211.239 19.7333 211.345 19.4333 211.559 19.22C211.785 19.0067 212.092 18.9 212.479 18.9H219.699C220.085 18.9 220.385 18.9867 220.599 19.16C220.812 19.3333 220.919 19.58 220.919 19.9C220.919 20.2333 220.812 20.4933 220.599 20.68C220.385 20.8533 220.085 20.94 219.699 20.94H213.759V24.82H219.299C219.685 24.82 219.985 24.9067 220.199 25.08C220.412 25.2533 220.519 25.5067 220.519 25.84C220.519 26.16 220.412 26.4067 220.199 26.58C219.985 26.7533 219.685 26.84 219.299 26.84H213.759V30.96H219.699C220.085 30.96 220.385 31.0533 220.599 31.24C220.812 31.4133 220.919 31.6667 220.919 32C220.919 32.32 220.812 32.5667 220.599 32.74C220.385 32.9133 220.085 33 219.699 33H212.479Z" fill="#40607D"/>
<path d="M107.41 51.112C106.701 51.112 106.024 51.014 105.38 50.818C104.745 50.622 104.237 50.3513 103.854 50.006C103.677 49.8567 103.588 49.6653 103.588 49.432C103.588 49.264 103.635 49.124 103.728 49.012C103.821 48.8907 103.933 48.83 104.064 48.83C104.195 48.83 104.353 48.8907 104.54 49.012C105.371 49.628 106.318 49.936 107.382 49.936C108.129 49.936 108.703 49.796 109.104 49.516C109.505 49.236 109.706 48.8347 109.706 48.312C109.706 47.9013 109.519 47.5933 109.146 47.388C108.773 47.1827 108.175 46.9867 107.354 46.8C106.57 46.632 105.926 46.4407 105.422 46.226C104.918 46.0113 104.521 45.722 104.232 45.358C103.952 44.9847 103.812 44.5133 103.812 43.944C103.812 43.3747 103.966 42.8707 104.274 42.432C104.591 41.984 105.03 41.6387 105.59 41.396C106.15 41.144 106.789 41.018 107.508 41.018C108.171 41.018 108.782 41.1113 109.342 41.298C109.902 41.4847 110.378 41.76 110.77 42.124C110.957 42.2827 111.05 42.474 111.05 42.698C111.05 42.8567 110.999 42.9967 110.896 43.118C110.803 43.2393 110.691 43.3 110.56 43.3C110.439 43.3 110.285 43.2393 110.098 43.118C109.669 42.7913 109.263 42.558 108.88 42.418C108.507 42.2687 108.054 42.194 107.522 42.194C106.803 42.194 106.243 42.3433 105.842 42.642C105.441 42.9313 105.24 43.3373 105.24 43.86C105.24 44.308 105.417 44.6487 105.772 44.882C106.127 45.106 106.696 45.3113 107.48 45.498C108.301 45.6847 108.964 45.8807 109.468 46.086C109.981 46.282 110.387 46.5573 110.686 46.912C110.994 47.2573 111.148 47.7053 111.148 48.256C111.148 48.816 110.989 49.3153 110.672 49.754C110.364 50.1833 109.925 50.5193 109.356 50.762C108.796 50.9953 108.147 51.112 107.41 51.112ZM116.873 51.112C115.557 51.112 114.559 50.7713 113.877 50.09C113.196 49.4087 112.855 48.4053 112.855 47.08V41.788C112.855 41.564 112.921 41.3867 113.051 41.256C113.182 41.1253 113.355 41.06 113.569 41.06C113.784 41.06 113.957 41.1253 114.087 41.256C114.218 41.3867 114.283 41.564 114.283 41.788V47.178C114.283 48.0833 114.498 48.7693 114.927 49.236C115.366 49.7027 116.015 49.936 116.873 49.936C117.723 49.936 118.367 49.7027 118.805 49.236C119.244 48.7693 119.463 48.0833 119.463 47.178V41.788C119.463 41.5733 119.529 41.4007 119.659 41.27C119.79 41.13 119.963 41.06 120.177 41.06C120.392 41.06 120.565 41.1253 120.695 41.256C120.826 41.3867 120.891 41.564 120.891 41.788V47.08C120.891 48.396 120.546 49.3993 119.855 50.09C119.174 50.7713 118.18 51.112 116.873 51.112ZM130.811 50.104C130.895 50.2253 130.937 50.356 130.937 50.496C130.937 50.664 130.867 50.8087 130.727 50.93C130.596 51.042 130.442 51.098 130.265 51.098C130.004 51.098 129.794 50.9813 129.635 50.748L127.759 47.836C127.544 47.5 127.316 47.2667 127.073 47.136C126.83 46.996 126.513 46.926 126.121 46.926H124.539V50.342C124.539 50.566 124.474 50.7433 124.343 50.874C124.222 51.0047 124.049 51.07 123.825 51.07C123.61 51.07 123.438 51.0047 123.307 50.874C123.176 50.7433 123.111 50.566 123.111 50.342V41.83C123.111 41.6153 123.172 41.4473 123.293 41.326C123.424 41.1953 123.601 41.13 123.825 41.13H127.311C128.403 41.13 129.234 41.3727 129.803 41.858C130.382 42.3433 130.671 43.0527 130.671 43.986C130.671 44.7607 130.452 45.3907 130.013 45.876C129.574 46.352 128.949 46.6553 128.137 46.786C128.38 46.8513 128.599 46.968 128.795 47.136C128.991 47.304 129.182 47.5373 129.369 47.836L130.811 50.104ZM127.143 45.764C127.871 45.764 128.408 45.624 128.753 45.344C129.108 45.0547 129.285 44.6113 129.285 44.014C129.285 43.4167 129.112 42.9827 128.767 42.712C128.422 42.432 127.88 42.292 127.143 42.292H124.525V45.764H127.143ZM132.908 47.836C132.694 47.836 132.53 47.7893 132.418 47.696C132.306 47.5933 132.25 47.4533 132.25 47.276C132.25 47.0987 132.306 46.9587 132.418 46.856C132.53 46.7533 132.694 46.702 132.908 46.702H135.89C136.105 46.702 136.268 46.7533 136.38 46.856C136.492 46.9587 136.548 47.0987 136.548 47.276C136.548 47.4533 136.492 47.5933 136.38 47.696C136.268 47.7893 136.105 47.836 135.89 47.836H132.908ZM139.26 51C139.036 51 138.859 50.9393 138.728 50.818C138.607 50.6873 138.546 50.5147 138.546 50.3V41.83C138.546 41.6153 138.607 41.4473 138.728 41.326C138.859 41.1953 139.036 41.13 139.26 41.13H144.412C144.627 41.13 144.79 41.1813 144.902 41.284C145.024 41.3867 145.084 41.5313 145.084 41.718C145.084 41.9047 145.024 42.0493 144.902 42.152C144.79 42.2453 144.627 42.292 144.412 42.292H139.96V45.4H144.132C144.347 45.4 144.51 45.4513 144.622 45.554C144.744 45.6567 144.804 45.8013 144.804 45.988C144.804 46.1747 144.744 46.3193 144.622 46.422C144.51 46.5247 144.347 46.576 144.132 46.576H139.96V49.838H144.412C144.86 49.838 145.084 50.0293 145.084 50.412C145.084 50.5987 145.024 50.7433 144.902 50.846C144.79 50.9487 144.627 51 144.412 51H139.26ZM149.861 51.112C149.152 51.112 148.475 51.014 147.831 50.818C147.197 50.622 146.688 50.3513 146.305 50.006C146.128 49.8567 146.039 49.6653 146.039 49.432C146.039 49.264 146.086 49.124 146.179 49.012C146.273 48.8907 146.385 48.83 146.515 48.83C146.646 48.83 146.805 48.8907 146.991 49.012C147.822 49.628 148.769 49.936 149.833 49.936C150.58 49.936 151.154 49.796 151.555 49.516C151.957 49.236 152.157 48.8347 152.157 48.312C152.157 47.9013 151.971 47.5933 151.597 47.388C151.224 47.1827 150.627 46.9867 149.805 46.8C149.021 46.632 148.377 46.4407 147.873 46.226C147.369 46.0113 146.973 45.722 146.683 45.358C146.403 44.9847 146.263 44.5133 146.263 43.944C146.263 43.3747 146.417 42.8707 146.725 42.432C147.043 41.984 147.481 41.6387 148.041 41.396C148.601 41.144 149.241 41.018 149.959 41.018C150.622 41.018 151.233 41.1113 151.793 41.298C152.353 41.4847 152.829 41.76 153.221 42.124C153.408 42.2827 153.501 42.474 153.501 42.698C153.501 42.8567 153.45 42.9967 153.347 43.118C153.254 43.2393 153.142 43.3 153.011 43.3C152.89 43.3 152.736 43.2393 152.549 43.118C152.12 42.7913 151.714 42.558 151.331 42.418C150.958 42.2687 150.505 42.194 149.973 42.194C149.255 42.194 148.695 42.3433 148.293 42.642C147.892 42.9313 147.691 43.3373 147.691 43.86C147.691 44.308 147.869 44.6487 148.223 44.882C148.578 45.106 149.147 45.3113 149.931 45.498C150.753 45.6847 151.415 45.8807 151.919 46.086C152.433 46.282 152.839 46.5573 153.137 46.912C153.445 47.2573 153.599 47.7053 153.599 48.256C153.599 48.816 153.441 49.3153 153.123 49.754C152.815 50.1833 152.377 50.5193 151.807 50.762C151.247 50.9953 150.599 51.112 149.861 51.112ZM158.639 51.112C157.929 51.112 157.253 51.014 156.609 50.818C155.974 50.622 155.465 50.3513 155.083 50.006C154.905 49.8567 154.817 49.6653 154.817 49.432C154.817 49.264 154.863 49.124 154.957 49.012C155.05 48.8907 155.162 48.83 155.293 48.83C155.423 48.83 155.582 48.8907 155.769 49.012C156.599 49.628 157.547 49.936 158.611 49.936C159.357 49.936 159.931 49.796 160.333 49.516C160.734 49.236 160.935 48.8347 160.935 48.312C160.935 47.9013 160.748 47.5933 160.375 47.388C160.001 47.1827 159.404 46.9867 158.583 46.8C157.799 46.632 157.155 46.4407 156.651 46.226C156.147 46.0113 155.75 45.722 155.461 45.358C155.181 44.9847 155.041 44.5133 155.041 43.944C155.041 43.3747 155.195 42.8707 155.503 42.432C155.82 41.984 156.259 41.6387 156.819 41.396C157.379 41.144 158.018 41.018 158.737 41.018C159.399 41.018 160.011 41.1113 160.571 41.298C161.131 41.4847 161.607 41.76 161.999 42.124C162.185 42.2827 162.279 42.474 162.279 42.698C162.279 42.8567 162.227 42.9967 162.125 43.118C162.031 43.2393 161.919 43.3 161.789 43.3C161.667 43.3 161.513 43.2393 161.327 43.118C160.897 42.7913 160.491 42.558 160.109 42.418C159.735 42.2687 159.283 42.194 158.751 42.194C158.032 42.194 157.472 42.3433 157.071 42.642C156.669 42.9313 156.469 43.3373 156.469 43.86C156.469 44.308 156.646 44.6487 157.001 44.882C157.355 45.106 157.925 45.3113 158.709 45.498C159.53 45.6847 160.193 45.8807 160.697 46.086C161.21 46.282 161.616 46.5573 161.915 46.912C162.223 47.2573 162.377 47.7053 162.377 48.256C162.377 48.816 162.218 49.3153 161.901 49.754C161.593 50.1833 161.154 50.5193 160.585 50.762C160.025 50.9953 159.376 51.112 158.639 51.112ZM168.396 51.112C167.463 51.112 166.651 50.9067 165.96 50.496C165.279 50.0853 164.751 49.502 164.378 48.746C164.005 47.99 163.818 47.0987 163.818 46.072C163.818 45.036 164 44.14 164.364 43.384C164.737 42.6187 165.269 42.0353 165.96 41.634C166.651 41.2233 167.463 41.018 168.396 41.018C169.339 41.018 170.155 41.2233 170.846 41.634C171.537 42.0353 172.064 42.6187 172.428 43.384C172.801 44.14 172.988 45.0313 172.988 46.058C172.988 47.0847 172.801 47.9807 172.428 48.746C172.064 49.502 171.537 50.0853 170.846 50.496C170.155 50.9067 169.339 51.112 168.396 51.112ZM168.396 49.936C169.385 49.936 170.155 49.6 170.706 48.928C171.257 48.256 171.532 47.2993 171.532 46.058C171.532 44.8167 171.257 43.8647 170.706 43.202C170.165 42.53 169.395 42.194 168.396 42.194C167.416 42.194 166.651 42.53 166.1 43.202C165.559 43.8647 165.288 44.8167 165.288 46.058C165.288 47.2993 165.559 48.256 166.1 48.928C166.651 49.6 167.416 49.936 168.396 49.936ZM182.375 41.06C182.58 41.06 182.743 41.13 182.865 41.27C182.995 41.4007 183.061 41.5733 183.061 41.788V50.342C183.061 50.5567 182.995 50.734 182.865 50.874C182.734 51.0047 182.566 51.07 182.361 51.07C182.118 51.07 181.931 50.9767 181.801 50.79L176.313 43.552V50.342C176.313 50.5567 176.247 50.734 176.117 50.874C175.995 51.0047 175.832 51.07 175.627 51.07C175.421 51.07 175.258 51.0047 175.137 50.874C175.015 50.7433 174.955 50.566 174.955 50.342V41.788C174.955 41.5733 175.02 41.4007 175.151 41.27C175.281 41.13 175.449 41.06 175.655 41.06C175.897 41.06 176.084 41.1533 176.215 41.34L181.703 48.592V41.788C181.703 41.5733 181.763 41.4007 181.885 41.27C182.006 41.13 182.169 41.06 182.375 41.06ZM192.779 41.06C192.984 41.06 193.148 41.13 193.269 41.27C193.4 41.4007 193.465 41.5733 193.465 41.788V50.342C193.465 50.5567 193.4 50.734 193.269 50.874C193.138 51.0047 192.97 51.07 192.765 51.07C192.522 51.07 192.336 50.9767 192.205 50.79L186.717 43.552V50.342C186.717 50.5567 186.652 50.734 186.521 50.874C186.4 51.0047 186.236 51.07 186.031 51.07C185.826 51.07 185.662 51.0047 185.541 50.874C185.42 50.7433 185.359 50.566 185.359 50.342V41.788C185.359 41.5733 185.424 41.4007 185.555 41.27C185.686 41.13 185.854 41.06 186.059 41.06C186.302 41.06 186.488 41.1533 186.619 41.34L192.107 48.592V41.788C192.107 41.5733 192.168 41.4007 192.289 41.27C192.41 41.13 192.574 41.06 192.779 41.06ZM196.477 51C196.253 51 196.076 50.9393 195.945 50.818C195.824 50.6873 195.763 50.5147 195.763 50.3V41.83C195.763 41.6153 195.824 41.4473 195.945 41.326C196.076 41.1953 196.253 41.13 196.477 41.13H201.629C201.844 41.13 202.007 41.1813 202.119 41.284C202.241 41.3867 202.301 41.5313 202.301 41.718C202.301 41.9047 202.241 42.0493 202.119 42.152C202.007 42.2453 201.844 42.292 201.629 42.292H197.177V45.4H201.349C201.564 45.4 201.727 45.4513 201.839 45.554C201.961 45.6567 202.021 45.8013 202.021 45.988C202.021 46.1747 201.961 46.3193 201.839 46.422C201.727 46.5247 201.564 46.576 201.349 46.576H197.177V49.838H201.629C202.077 49.838 202.301 50.0293 202.301 50.412C202.301 50.5987 202.241 50.7433 202.119 50.846C202.007 50.9487 201.844 51 201.629 51H196.477ZM207.078 51.112C206.369 51.112 205.692 51.014 205.048 50.818C204.413 50.622 203.905 50.3513 203.522 50.006C203.345 49.8567 203.256 49.6653 203.256 49.432C203.256 49.264 203.303 49.124 203.396 49.012C203.489 48.8907 203.601 48.83 203.732 48.83C203.863 48.83 204.021 48.8907 204.208 49.012C205.039 49.628 205.986 49.936 207.05 49.936C207.797 49.936 208.371 49.796 208.772 49.516C209.173 49.236 209.374 48.8347 209.374 48.312C209.374 47.9013 209.187 47.5933 208.814 47.388C208.441 47.1827 207.843 46.9867 207.022 46.8C206.238 46.632 205.594 46.4407 205.09 46.226C204.586 46.0113 204.189 45.722 203.9 45.358C203.62 44.9847 203.48 44.5133 203.48 43.944C203.48 43.3747 203.634 42.8707 203.942 42.432C204.259 41.984 204.698 41.6387 205.258 41.396C205.818 41.144 206.457 41.018 207.176 41.018C207.839 41.018 208.45 41.1113 209.01 41.298C209.57 41.4847 210.046 41.76 210.438 42.124C210.625 42.2827 210.718 42.474 210.718 42.698C210.718 42.8567 210.667 42.9967 210.564 43.118C210.471 43.2393 210.359 43.3 210.228 43.3C210.107 43.3 209.953 43.2393 209.766 43.118C209.337 42.7913 208.931 42.558 208.548 42.418C208.175 42.2687 207.722 42.194 207.19 42.194C206.471 42.194 205.911 42.3433 205.51 42.642C205.109 42.9313 204.908 43.3373 204.908 43.86C204.908 44.308 205.085 44.6487 205.44 44.882C205.795 45.106 206.364 45.3113 207.148 45.498C207.969 45.6847 208.632 45.8807 209.136 46.086C209.649 46.282 210.055 46.5573 210.354 46.912C210.662 47.2573 210.816 47.7053 210.816 48.256C210.816 48.816 210.657 49.3153 210.34 49.754C210.032 50.1833 209.593 50.5193 209.024 50.762C208.464 50.9953 207.815 51.112 207.078 51.112Z" fill="#9FB6CB"/>
<defs>
<clipPath id="clip0_209_133">
<rect width="83.3" height="64.3" fill="white" transform="translate(10)"/>
</clipPath>
<clipPath id="clip1_209_133">
<rect width="124" height="25" fill="white" transform="translate(0 50)"/>
</clipPath>
<clipPath id="clip2_209_133">
<rect width="63" height="13" fill="white" transform="translate(0 68)"/>
</clipPath>
</defs>
</svg>
