<?xml version="1.0" standalone="no"?>
<svg xmlns:xlink="http://www.w3.org/1999/xlink" id="wave" style="transform:rotate(0deg); transition: 0.3s" viewBox="0 0 1440 150" version="1.1" xmlns="http://www.w3.org/2000/svg"><defs><linearGradient id="sw-gradient-0" x1="0" x2="0" y1="1" y2="0"><stop stop-color="rgba(255, 255, 255, 1)" offset="255%"/><stop stop-color="rgba(255, 255, 2550, 1)" offset="100%"/></linearGradient></defs><path style="transform:translate(0, 0px); opacity:1" fill="url(#sw-gradient-0)" d="M0,90L48,90C96,90,192,90,288,85C384,80,480,70,576,72.5C672,75,768,90,864,100C960,110,1056,115,1152,102.5C1248,90,1344,60,1440,60C1536,60,1632,90,1728,95C1824,100,1920,80,2016,70C2112,60,2208,60,2304,52.5C2400,45,2496,30,2592,32.5C2688,35,2784,55,2880,62.5C2976,70,3072,65,3168,52.5C3264,40,3360,20,3456,30C3552,40,3648,80,3744,82.5C3840,85,3936,50,4032,52.5C4128,55,4224,95,4320,97.5C4416,100,4512,65,4608,62.5C4704,60,4800,90,4896,87.5C4992,85,5088,50,5184,35C5280,20,5376,25,5472,45C5568,65,5664,100,5760,97.5C5856,95,5952,55,6048,37.5C6144,20,6240,25,6336,22.5C6432,20,6528,10,6624,25C6720,40,6816,80,6864,100L6912,120L6912,150L6864,150C6816,150,6720,150,6624,150C6528,150,6432,150,6336,150C6240,150,6144,150,6048,150C5952,150,5856,150,5760,150C5664,150,5568,150,5472,150C5376,150,5280,150,5184,150C5088,150,4992,150,4896,150C4800,150,4704,150,4608,150C4512,150,4416,150,4320,150C4224,150,4128,150,4032,150C3936,150,3840,150,3744,150C3648,150,3552,150,3456,150C3360,150,3264,150,3168,150C3072,150,2976,150,2880,150C2784,150,2688,150,2592,150C2496,150,2400,150,2304,150C2208,150,2112,150,2016,150C1920,150,1824,150,1728,150C1632,150,1536,150,1440,150C1344,150,1248,150,1152,150C1056,150,960,150,864,150C768,150,672,150,576,150C480,150,384,150,288,150C192,150,96,150,48,150L0,150Z"/></svg>